<mxfile host="65bd71144e">
    <diagram name="第 1 页" id="TPmMMUc-IZCPkYvwqXmU">
        <mxGraphModel dx="2153" dy="645" grid="1" gridSize="10" guides="1" tooltips="1" connect="1" arrows="1" fold="1" page="1" pageScale="1" pageWidth="827" pageHeight="1169" background="none" math="0" shadow="0">
            <root>
                <mxCell id="0"/>
                <mxCell id="1" parent="0"/>
                <mxCell id="4IqZ2Y8Tq9wsqdOboTZO-40" style="edgeStyle=orthogonalEdgeStyle;rounded=1;orthogonalLoop=1;jettySize=auto;html=1;exitX=0;exitY=0.25;exitDx=0;exitDy=0;" parent="1" source="17" target="19" edge="1">
                    <mxGeometry relative="1" as="geometry"/>
                </mxCell>
                <mxCell id="4IqZ2Y8Tq9wsqdOboTZO-49" value="USART3" style="edgeLabel;html=1;align=center;verticalAlign=middle;resizable=0;points=[];rounded=1;" parent="4IqZ2Y8Tq9wsqdOboTZO-40" vertex="1" connectable="0">
                    <mxGeometry x="-0.1423" y="-2" relative="1" as="geometry">
                        <mxPoint as="offset"/>
                    </mxGeometry>
                </mxCell>
                <mxCell id="4IqZ2Y8Tq9wsqdOboTZO-41" style="edgeStyle=orthogonalEdgeStyle;rounded=1;orthogonalLoop=1;jettySize=auto;html=1;exitX=0;exitY=0.5;exitDx=0;exitDy=0;" parent="1" source="17" target="21" edge="1">
                    <mxGeometry relative="1" as="geometry"/>
                </mxCell>
                <mxCell id="4IqZ2Y8Tq9wsqdOboTZO-50" value="USART6" style="edgeLabel;html=1;align=center;verticalAlign=middle;resizable=0;points=[];rounded=1;" parent="4IqZ2Y8Tq9wsqdOboTZO-41" vertex="1" connectable="0">
                    <mxGeometry x="-0.0082" y="1" relative="1" as="geometry">
                        <mxPoint as="offset"/>
                    </mxGeometry>
                </mxCell>
                <mxCell id="4IqZ2Y8Tq9wsqdOboTZO-42" style="edgeStyle=orthogonalEdgeStyle;rounded=1;orthogonalLoop=1;jettySize=auto;html=1;exitX=0;exitY=0.75;exitDx=0;exitDy=0;" parent="1" source="17" target="37" edge="1">
                    <mxGeometry relative="1" as="geometry"/>
                </mxCell>
                <mxCell id="4IqZ2Y8Tq9wsqdOboTZO-51" value="UART4" style="edgeLabel;html=1;align=center;verticalAlign=middle;resizable=0;points=[];rounded=1;" parent="4IqZ2Y8Tq9wsqdOboTZO-42" vertex="1" connectable="0">
                    <mxGeometry x="0.16" relative="1" as="geometry">
                        <mxPoint as="offset"/>
                    </mxGeometry>
                </mxCell>
                <mxCell id="4IqZ2Y8Tq9wsqdOboTZO-43" style="edgeStyle=orthogonalEdgeStyle;rounded=1;orthogonalLoop=1;jettySize=auto;html=1;exitX=1;exitY=0.25;exitDx=0;exitDy=0;entryX=0;entryY=0.5;entryDx=0;entryDy=0;" parent="1" source="17" target="33" edge="1">
                    <mxGeometry relative="1" as="geometry"/>
                </mxCell>
                <mxCell id="4IqZ2Y8Tq9wsqdOboTZO-54" value="USART2" style="edgeLabel;html=1;align=center;verticalAlign=middle;resizable=0;points=[];rounded=1;" parent="4IqZ2Y8Tq9wsqdOboTZO-43" vertex="1" connectable="0">
                    <mxGeometry x="0.0056" y="2" relative="1" as="geometry">
                        <mxPoint as="offset"/>
                    </mxGeometry>
                </mxCell>
                <mxCell id="4IqZ2Y8Tq9wsqdOboTZO-44" style="edgeStyle=orthogonalEdgeStyle;rounded=1;orthogonalLoop=1;jettySize=auto;html=1;exitX=1;exitY=0.75;exitDx=0;exitDy=0;" parent="1" source="17" target="22" edge="1">
                    <mxGeometry relative="1" as="geometry"/>
                </mxCell>
                <mxCell id="4IqZ2Y8Tq9wsqdOboTZO-55" value="USART1" style="edgeLabel;html=1;align=center;verticalAlign=middle;resizable=0;points=[];rounded=1;" parent="4IqZ2Y8Tq9wsqdOboTZO-44" vertex="1" connectable="0">
                    <mxGeometry x="0.0169" y="1" relative="1" as="geometry">
                        <mxPoint as="offset"/>
                    </mxGeometry>
                </mxCell>
                <mxCell id="4IqZ2Y8Tq9wsqdOboTZO-45" style="edgeStyle=orthogonalEdgeStyle;rounded=1;orthogonalLoop=1;jettySize=auto;html=1;exitX=0.25;exitY=1;exitDx=0;exitDy=0;" parent="1" source="17" target="36" edge="1">
                    <mxGeometry relative="1" as="geometry"/>
                </mxCell>
                <mxCell id="4IqZ2Y8Tq9wsqdOboTZO-56" value="PWM" style="edgeLabel;html=1;align=center;verticalAlign=middle;resizable=0;points=[];rounded=1;" parent="4IqZ2Y8Tq9wsqdOboTZO-45" vertex="1" connectable="0">
                    <mxGeometry x="-0.0221" y="1" relative="1" as="geometry">
                        <mxPoint as="offset"/>
                    </mxGeometry>
                </mxCell>
                <mxCell id="4IqZ2Y8Tq9wsqdOboTZO-46" style="edgeStyle=orthogonalEdgeStyle;rounded=1;orthogonalLoop=1;jettySize=auto;html=1;exitX=0.75;exitY=1;exitDx=0;exitDy=0;entryX=0;entryY=0.5;entryDx=0;entryDy=0;" parent="1" source="17" target="23" edge="1">
                    <mxGeometry relative="1" as="geometry"/>
                </mxCell>
                <mxCell id="4IqZ2Y8Tq9wsqdOboTZO-57" value="UART5" style="edgeLabel;html=1;align=center;verticalAlign=middle;resizable=0;points=[];rounded=1;" parent="4IqZ2Y8Tq9wsqdOboTZO-46" vertex="1" connectable="0">
                    <mxGeometry x="-0.0918" y="-3" relative="1" as="geometry">
                        <mxPoint as="offset"/>
                    </mxGeometry>
                </mxCell>
                <mxCell id="4IqZ2Y8Tq9wsqdOboTZO-47" style="edgeStyle=orthogonalEdgeStyle;rounded=1;orthogonalLoop=1;jettySize=auto;html=1;exitX=0.25;exitY=0;exitDx=0;exitDy=0;" parent="1" source="17" target="26" edge="1">
                    <mxGeometry relative="1" as="geometry"/>
                </mxCell>
                <mxCell id="4IqZ2Y8Tq9wsqdOboTZO-52" value="SWD" style="edgeLabel;html=1;align=center;verticalAlign=middle;resizable=0;points=[];rounded=1;" parent="4IqZ2Y8Tq9wsqdOboTZO-47" vertex="1" connectable="0">
                    <mxGeometry x="-0.267" relative="1" as="geometry">
                        <mxPoint as="offset"/>
                    </mxGeometry>
                </mxCell>
                <mxCell id="4IqZ2Y8Tq9wsqdOboTZO-48" style="edgeStyle=orthogonalEdgeStyle;rounded=1;orthogonalLoop=1;jettySize=auto;html=1;exitX=0.75;exitY=0;exitDx=0;exitDy=0;" parent="1" source="17" target="39" edge="1">
                    <mxGeometry relative="1" as="geometry"/>
                </mxCell>
                <mxCell id="4IqZ2Y8Tq9wsqdOboTZO-53" value="SPI2" style="edgeLabel;html=1;align=center;verticalAlign=middle;resizable=0;points=[];rounded=1;" parent="4IqZ2Y8Tq9wsqdOboTZO-48" vertex="1" connectable="0">
                    <mxGeometry x="-0.2722" y="2" relative="1" as="geometry">
                        <mxPoint as="offset"/>
                    </mxGeometry>
                </mxCell>
                <mxCell id="17" value="STM32H743VIH6" style="rounded=1;whiteSpace=wrap;html=1;labelBackgroundColor=none;" parent="1" vertex="1">
                    <mxGeometry x="-780" y="300" width="220" height="210" as="geometry"/>
                </mxCell>
                <mxCell id="18" style="edgeStyle=orthogonalEdgeStyle;rounded=1;orthogonalLoop=1;jettySize=auto;html=1;labelBackgroundColor=none;fontColor=default;" parent="1" source="19" target="29" edge="1">
                    <mxGeometry relative="1" as="geometry">
                        <mxPoint x="-1022" y="340" as="targetPoint"/>
                    </mxGeometry>
                </mxCell>
                <mxCell id="19" value="Odrive_1" style="rounded=1;whiteSpace=wrap;html=1;labelBackgroundColor=none;" parent="1" vertex="1">
                    <mxGeometry x="-962" y="310" width="120" height="60" as="geometry"/>
                </mxCell>
                <mxCell id="20" value="" style="edgeStyle=orthogonalEdgeStyle;rounded=1;orthogonalLoop=1;jettySize=auto;html=1;labelBackgroundColor=none;fontColor=default;" parent="1" source="21" target="30" edge="1">
                    <mxGeometry relative="1" as="geometry"/>
                </mxCell>
                <mxCell id="21" value="Odrive_2" style="rounded=1;whiteSpace=wrap;html=1;labelBackgroundColor=none;" parent="1" vertex="1">
                    <mxGeometry x="-962" y="380" width="120" height="60" as="geometry"/>
                </mxCell>
                <mxCell id="22" value="PC" style="rounded=1;whiteSpace=wrap;html=1;labelBackgroundColor=none;" parent="1" vertex="1">
                    <mxGeometry x="-505" y="415" width="120" height="60" as="geometry"/>
                </mxCell>
                <mxCell id="23" value="串行总线舵机" style="rounded=1;whiteSpace=wrap;html=1;direction=south;labelBackgroundColor=none;" parent="1" vertex="1">
                    <mxGeometry x="-660" y="569" width="60" height="120" as="geometry"/>
                </mxCell>
                <mxCell id="26" value="ST-Link" style="rounded=1;whiteSpace=wrap;html=1;direction=south;labelBackgroundColor=none;" parent="1" vertex="1">
                    <mxGeometry x="-750" y="122" width="60" height="120" as="geometry"/>
                </mxCell>
                <mxCell id="29" value="动量轮" style="rounded=1;whiteSpace=wrap;html=1;labelBackgroundColor=none;" parent="1" vertex="1">
                    <mxGeometry x="-1112" y="310" width="120" height="60" as="geometry"/>
                </mxCell>
                <mxCell id="30" value="后轮" style="whiteSpace=wrap;html=1;rounded=1;labelBackgroundColor=none;" parent="1" vertex="1">
                    <mxGeometry x="-1112" y="380" width="120" height="60" as="geometry"/>
                </mxCell>
                <mxCell id="33" value="IMU" style="rounded=1;whiteSpace=wrap;html=1;direction=east;labelBackgroundColor=none;" parent="1" vertex="1">
                    <mxGeometry x="-505" y="335" width="120" height="60" as="geometry"/>
                </mxCell>
                <mxCell id="36" value="PWM舵机" style="rounded=1;whiteSpace=wrap;html=1;direction=south;labelBackgroundColor=none;" parent="1" vertex="1">
                    <mxGeometry x="-750" y="569" width="60" height="120" as="geometry"/>
                </mxCell>
                <mxCell id="37" value="空余设计" style="rounded=1;whiteSpace=wrap;html=1;" parent="1" vertex="1">
                    <mxGeometry x="-962" y="450" width="120" height="60" as="geometry"/>
                </mxCell>
                <mxCell id="39" value="st7789" style="rounded=1;whiteSpace=wrap;html=1;direction=south;" parent="1" vertex="1">
                    <mxGeometry x="-660.0011764705882" y="122" width="60" height="120" as="geometry"/>
                </mxCell>
            </root>
        </mxGraphModel>
    </diagram>
</mxfile>